# xmcd CD database file generated by LOLA_Freedb v0.9beta0
# 
# Track frame offsets:
#      150
#      16366
#      26886
#      41986
#      53317
#      66224
#      78803
#      88834
#      104592
#      116357
#      127868
#      139483
# 
# Disc length: 2093 seconds
# 
# Revision: 0 
# Processed by: cddbd v1.5.1PL2 Copyright (c) Steve Scherf et al.
# Submitted via: LOLA_Freedb v0.9beta0
# 
DISCID=9e082b0c
DTITLE=Les Humphries Singers - We are goin' down Jordan
DYEAR=1900
DGENRE=
TTITLE0=Love the one you're with
TTITLE1=Loose threads
TTITLE2=12 men
TTITLE3=Jesus, Joseph and Peter
TTITLE4=We are goin' down Jordan
TTITLE5=2.000 years
TTITLE6=White bread
TTITLE7=Susanne
TTITLE8=Marshall Wright
TTITLE9=Mother remember
TTITLE10=Lot of muddy water
TTITLE11=Little brown man
EXTD=
EXTT0=
EXTT1=
EXTT2=
EXTT3=
EXTT4=
EXTT5=
EXTT6=
EXTT7=
EXTT8=
EXTT9=
EXTT10=
EXTT11=
PLAYORDER=
